<svg id="Capa_1" enable-background="new 0 0 443.295 443.295" height="512" viewBox="0 0 443.295 443.295" width="512" xmlns="http://www.w3.org/2000/svg"><path d="m235.473 56.113.019-28.406h41.567v-27.706h-110.824v27.706h41.559l-.027 28.409c-100.466 7.167-180.061 90.978-180.061 193.238 0 44.412 15.162 85.255 40.365 117.983l-12.659 75.958h41.54l20.455-30.66c30.143 19.312 65.857 30.66 104.24 30.66 38.378 0 74.089-11.347 104.232-30.655l20.416 30.655h41.588l-12.659-75.958c25.203-32.728 40.365-73.572 40.365-117.983-.001-102.279-79.623-186.103-180.116-193.241zm-13.826 359.475c-91.659 0-166.235-74.576-166.235-166.235s74.576-166.235 166.235-166.235 166.235 74.576 166.235 166.235-74.576 166.235-166.235 166.235z"/><path d="m235.5 138.53h-27.706v102.707l66.383 66.383 19.589-19.589-58.266-58.266z"/><path d="m217.064 230.085h27.703v148.616h-27.703z" transform="matrix(.707 -.707 .707 .707 2.436 10.382)"/><path d="m-72.059 73.377h148.617v27.703h-148.617z" transform="matrix(.707 -.707 .707 .707 -.932 2.25)"/></svg>