<?xml version="1.0" standalone="no"?>
<!DOCTYPE svg PUBLIC "-//W3C//DTD SVG 20010904//EN"
 "http://www.w3.org/TR/2001/REC-SVG-20010904/DTD/svg10.dtd">
<svg version="1.0" xmlns="http://www.w3.org/2000/svg"
 width="700.000000pt" height="700.000000pt" viewBox="0 0 700.000000 700.000000"
 preserveAspectRatio="xMidYMid meet">
<metadata>
Created by potrace 1.11, written by Peter Selinger 2001-2013
</metadata>
<g transform="translate(0.000000,700.000000) scale(0.100000,-0.100000)"
fill="#000000" stroke="none">
<path d="M827 6170 l-827 -828 154 -155 154 -154 826 826 c454 454 826 829
826 834 0 7 -260 269 -290 293 -12 10 -168 -141 -843 -816z"/>
<path d="M2625 6782 l0 -219 323 1 c178 1 326 -2 328 -6 8 -12 5 -431 -3 -439
-5 -4 -42 -10 -83 -13 -41 -4 -84 -9 -95 -11 -11 -2 -38 -6 -60 -9 -22 -3 -65
-10 -95 -16 -30 -6 -66 -14 -80 -16 -212 -42 -476 -133 -695 -239 -370 -180
-681 -416 -955 -725 -41 -47 -78 -87 -81 -90 -28 -26 -249 -341 -249 -356 0
-4 -6 -15 -14 -23 -21 -24 -130 -235 -171 -331 -20 -47 -40 -94 -46 -105 -10
-22 -98 -286 -104 -313 -2 -9 -15 -66 -29 -127 -26 -112 -31 -139 -41 -210 -3
-22 -8 -51 -10 -65 -5 -28 -13 -105 -21 -195 -6 -71 -6 -341 0 -405 3 -25 7
-81 11 -125 3 -44 8 -87 10 -95 3 -8 7 -31 9 -50 9 -65 17 -115 22 -132 3 -10
7 -30 10 -44 13 -70 58 -232 94 -337 97 -283 208 -504 387 -765 l85 -124 -7
-56 c-3 -32 -10 -75 -15 -97 -5 -22 -11 -58 -14 -80 -4 -23 -9 -52 -11 -65 -3
-14 -8 -41 -11 -60 -3 -19 -7 -44 -9 -55 -2 -11 -6 -40 -9 -65 -4 -25 -9 -52
-11 -60 -3 -8 -7 -35 -11 -60 -3 -25 -8 -54 -10 -65 -2 -11 -5 -33 -8 -50 -3
-16 -8 -46 -11 -65 -9 -49 -12 -68 -20 -125 -3 -27 -13 -79 -20 -115 -7 -36
-17 -91 -20 -122 l-7 -58 329 1 328 0 130 200 c137 209 144 220 173 257 l18
24 78 -47 c250 -148 595 -292 812 -340 10 -2 51 -11 89 -20 39 -9 84 -18 100
-21 17 -2 50 -9 75 -14 45 -9 86 -14 215 -27 143 -15 600 -6 658 12 7 2 35 6
62 9 62 7 269 50 362 75 226 61 487 171 717 303 65 37 122 66 126 63 3 -2 76
-110 161 -239 l154 -235 333 -1 c190 0 331 4 328 9 -3 5 -10 40 -16 77 -5 38
-12 83 -15 99 -3 17 -8 41 -11 55 -2 14 -9 54 -14 90 -5 36 -12 76 -14 90 -10
57 -72 426 -81 484 -4 21 -8 48 -11 59 -2 12 -6 37 -9 57 -3 20 -8 47 -10 60
-22 111 -20 119 45 210 132 182 275 443 357 650 324 825 280 1734 -122 2515
-78 152 -74 144 -177 299 -454 683 -1152 1150 -1960 1311 -115 22 -163 29
-288 41 -41 3 -76 8 -78 9 -6 5 -4 437 2 443 3 3 151 6 329 6 l322 1 0 215 0
215 -875 3 -875 2 0 -218z m1110 -1105 c17 -3 61 -9 100 -12 38 -4 72 -8 75
-10 3 -1 28 -6 55 -9 73 -10 274 -62 379 -98 647 -223 1180 -685 1493 -1293
98 -190 190 -445 227 -630 25 -121 26 -127 31 -175 3 -25 8 -54 10 -65 22
-112 23 -523 1 -640 -2 -11 -7 -42 -10 -70 -12 -87 -16 -108 -37 -195 -138
-589 -481 -1130 -945 -1486 -32 -25 -67 -51 -77 -59 -9 -8 -20 -15 -24 -15 -4
0 -16 -8 -27 -18 -65 -57 -341 -207 -501 -272 -148 -59 -359 -122 -485 -144
-19 -3 -46 -8 -60 -11 -14 -3 -45 -8 -70 -10 -25 -3 -54 -7 -65 -10 -27 -6
-215 -17 -295 -17 -79 -1 -289 11 -321 17 -13 3 -44 8 -69 11 -25 3 -54 8 -65
10 -11 2 -36 7 -55 10 -123 21 -352 90 -495 149 -168 69 -440 220 -545 302
-142 110 -206 166 -315 277 -144 145 -180 187 -275 320 -167 232 -284 463
-370 731 -17 55 -33 107 -35 115 -2 8 -13 53 -24 100 -11 47 -22 101 -25 120
-2 19 -7 51 -10 70 -13 74 -15 94 -22 183 -13 158 -7 429 11 527 2 14 7 45 10
70 12 107 56 292 98 420 131 400 343 746 637 1040 105 105 142 139 214 195 21
17 44 35 50 41 22 21 202 142 274 183 215 125 434 215 662 275 82 21 143 32
320 61 14 3 56 7 95 11 38 4 71 7 72 8 6 5 381 -1 408 -7z"/>
<path d="M3282 4003 l0 -812 524 -524 525 -524 147 148 c81 82 148 153 150
159 2 6 -201 216 -452 466 l-456 456 0 97 c0 53 -1 377 0 721 l0 625 -219 0
-219 0 0 -812z"/>
<path d="M5185 6846 l-154 -153 829 -830 829 -829 155 153 155 154 -830 830
-829 829 -155 -154z"/>
</g>
</svg>
